<?xml version="1.0" encoding="UTF-8"?><svg id="Window" xmlns="http://www.w3.org/2000/svg" viewBox="0 0 593.69 413.39"><defs><style>.cls-1{fill:#fff;}.cls-2{fill:#fafafa;}.cls-3{fill:#e0e0e0;}.cls-4{fill:#282828;}.cls-5{opacity:.3;}.cls-6{fill:#ebebeb;}.cls-7{fill:#263238;}</style></defs><path class="cls-6" d="m235.93,332.57c2.66-1.61,5.5-2.83,8.42-3.66l1.73-8.33,14.08-.25,2.03,8.27c2.95.73,5.82,1.85,8.54,3.36l7.11-4.66,10.13,9.78-4.41,7.27c1.61,2.66,2.83,5.5,3.66,8.42l8.33,1.73.25,14.08-8.27,2.03c-.73,2.95-1.85,5.82-3.36,8.54l4.66,7.12-9.78,10.13-7.27-4.41c-2.66,1.61-5.5,2.83-8.42,3.66l-1.73,8.33-14.08.25-2.03-8.27c-2.95-.73-5.82-1.85-8.54-3.36l-7.11,4.66-10.13-9.78,4.41-7.27c-1.61-2.66-2.83-5.5-3.66-8.42l-8.33-1.73-.25-14.08,8.27-2.03c.73-2.95,1.85-5.82,3.36-8.54l-4.66-7.12,9.78-10.13,7.27,4.41h0Zm7.5,18.75c-5.79,6-5.63,15.56.38,21.36,6,5.79,15.56,5.63,21.36-.38,5.79-6,5.63-15.56-.38-21.36-6-5.79-15.56-5.63-21.36.38Z"/><g><path class="cls-6" d="m90.09,26.66c2.42-1.46,4.99-2.57,7.64-3.32l1.57-7.57,12.78-.22,1.84,7.51c2.68.66,5.29,1.68,7.76,3.05l6.46-4.24,9.2,8.88-4,6.6c1.46,2.42,2.57,4.99,3.32,7.65l7.57,1.57.22,12.78-7.51,1.84c-.66,2.68-1.68,5.29-3.05,7.76l4.23,6.46-8.88,9.2-6.61-4.01c-2.42,1.46-4.99,2.57-7.65,3.32l-1.57,7.57-12.78.22-1.84-7.51c-2.68-.66-5.29-1.68-7.76-3.05l-6.46,4.24-9.2-8.88,4-6.6c-1.46-2.42-2.57-4.99-3.32-7.64l-7.57-1.57-.22-12.78,7.51-1.84c.66-2.68,1.68-5.29,3.05-7.76l-4.23-6.46,8.88-9.2,6.61,4.01h0Zm6.81,17.03c-5.26,5.45-5.11,14.13.34,19.39,5.45,5.26,14.13,5.11,19.39-.34,5.26-5.45,5.11-14.13-.34-19.39-5.45-5.26-14.13-5.11-19.39.34Z"/><rect class="cls-6" x="407.83" y="-5.53" width="1" height="221.67" transform="translate(111.76 405.09) rotate(-59.77)"/><path class="cls-6" d="m55.56,268.14l-.72-.7c.79-.81,79.25-81.19,112.43-117.45,24.04-26.26,94-99.11,94.71-99.84l.72.69c-.7.73-70.66,73.57-94.69,99.83-33.19,36.27-111.66,116.66-112.45,117.47Z"/><g><path class="cls-6" d="m33.25,283.31c2.81-1.18,4.8-4.07,4.82-7.48.02-4.47-3.36-8.11-7.56-8.13-4.19-.02-7.6,3.59-7.62,8.06-.01,3.44,2,6.37,4.83,7.56-11.68,1.76-11.15,14.45-11.15,14.45l27.61.13s.63-12.83-10.95-14.58Z"/><path class="cls-6" d="m30.39,314.15c-16.76,0-30.39-13.63-30.39-30.39s13.63-30.39,30.39-30.39,30.39,13.63,30.39,30.39-13.63,30.39-30.39,30.39Zm0-59.92c-16.28,0-29.53,13.24-29.53,29.52s13.24,29.53,29.53,29.53,29.53-13.25,29.53-29.53-13.24-29.52-29.53-29.52Z"/></g><g><path class="cls-6" d="m532.45,173.87c2.74-1.15,4.68-3.97,4.7-7.3.02-4.36-3.28-7.91-7.37-7.92-4.08-.02-7.41,3.5-7.43,7.86-.01,3.36,1.95,6.21,4.71,7.37-11.39,1.72-10.87,14.09-10.87,14.09l26.92.12s.61-12.51-10.67-14.21Z"/><path class="cls-6" d="m532.88,203.76c-18.86,2-34.68-13.82-32.68-32.68,1.46-13.74,12.5-24.79,26.24-26.24,18.86-2,34.68,13.82,32.68,32.68-1.46,13.74-12.5,24.79-26.24,26.25Zm-.09-58.08c-18.32-1.94-33.69,13.43-31.75,31.75,1.42,13.35,12.15,24.08,25.5,25.49,18.32,1.94,33.69-13.43,31.75-31.75-1.42-13.35-12.15-24.08-25.5-25.49Z"/></g><g><path class="cls-6" d="m283.54,27.45c2.57-1.08,4.4-3.73,4.42-6.86.02-4.1-3.08-7.43-6.93-7.45-3.84-.02-6.97,3.29-6.99,7.39-.01,3.16,1.83,5.84,4.43,6.93-10.7,1.61-10.22,13.25-10.22,13.25l25.31.12s.58-11.76-10.03-13.36Z"/><path class="cls-6" d="m283.95,55.56c-17.73,1.88-32.61-12.99-30.73-30.73,1.37-12.92,11.75-23.31,24.67-24.68,17.73-1.88,32.61,12.99,30.73,30.73-1.37,12.92-11.75,23.31-24.67,24.68Zm-.09-54.61c-17.23-1.82-31.68,12.63-29.85,29.85,1.33,12.55,11.42,22.64,23.97,23.97,17.23,1.82,31.68-12.63,29.85-29.85-1.33-12.55-11.42-22.64-23.97-23.97Z"/></g><g><path class="cls-6" d="m130.93,387.08c2.4-1,4.1-3.48,4.11-6.39.02-3.81-2.87-6.92-6.45-6.93-3.57-.02-6.49,3.06-6.5,6.87-.01,2.94,1.7,5.44,4.13,6.45-9.96,1.5-9.51,12.33-9.51,12.33l23.56.11s.54-10.95-9.34-12.44Z"/><path class="cls-6" d="m128.49,413.39c-14.3,0-25.93-11.63-25.93-25.93s11.63-25.93,25.93-25.93,25.93,11.63,25.93,25.93-11.63,25.93-25.93,25.93Zm0-51.12c-13.89,0-25.19,11.3-25.19,25.19s11.3,25.19,25.19,25.19,25.19-11.3,25.19-25.19-11.3-25.19-25.19-25.19Z"/></g><rect class="cls-6" x="78.58" y="295.03" width="1" height="88.15" transform="translate(-225.97 171.21) rotate(-48.05)"/></g><g><rect class="cls-2" x="404.23" y="9.74" width="155.96" height="73.25"/><path class="cls-7" d="m560.19,82.99s-.01-.45-.02-1.31c0-.87-.01-2.14-.02-3.81-.01-3.35-.03-8.27-.05-14.6-.02-12.66-.06-30.94-.1-53.53l.19.19c-40.55.02-95.52.04-155.95.07h-.01l.26-.26c0,25.78,0,50.56-.01,73.25l-.25-.25c45.4.05,84.36.09,111.98.12,13.82.03,24.8.05,32.34.07,3.76.01,6.67.02,8.64.03.98,0,1.72.01,2.24.01.5,0,.77.02.77.02,0,0-.24.01-.74.02-.51,0-1.24,0-2.21.01-1.96,0-4.85.02-8.59.03-7.52.02-18.49.04-32.28.07-27.66.03-66.67.07-112.14.12h-.25s0-.25,0-.25c0-22.69,0-47.47-.01-73.25v-.26s.26,0,.26,0h.01c60.43.03,115.4.05,155.95.07h.19s0,.19,0,.19c-.04,22.63-.08,40.96-.1,53.64-.02,6.31-.04,11.22-.05,14.56,0,1.65-.02,2.91-.02,3.78,0,.85-.02,1.27-.02,1.27Z"/></g><path class="cls-7" d="m560.43,31.85c0,.14-34.97.26-78.1.26s-78.1-.12-78.1-.26,34.96-.26,78.1-.26,78.1.12,78.1.26Z"/><g><path class="cls-7" d="m419.61,17.46c.1.11-1.8,2.01-4.24,4.25-2.44,2.24-4.49,3.97-4.59,3.86-.1-.11,1.8-2.01,4.24-4.25,2.44-2.24,4.49-3.97,4.59-3.86Z"/><path class="cls-7" d="m419.26,25.93c-.11.1-2.01-1.8-4.25-4.24-2.24-2.44-3.97-4.49-3.86-4.59.11-.1,2.01,1.8,4.25,4.24,2.24,2.44,3.97,4.49,3.86,4.59Z"/></g><path class="cls-7" d="m435.1,25.76s-.03-.25-.05-.66c-.02-.49-.04-1.06-.06-1.75-.04-1.49-.09-3.58-.11-6.07l.23.23c-2.49.01-5.38.02-8.47.04-.06.06.49-.49.26-.26h0v.58s0,.57,0,.57c0,.38,0,.76,0,1.13,0,.75,0,1.48,0,2.19,0,1.42-.02,2.75-.03,4l-.23-.23c2.49.02,4.58.07,6.07.11.68.02,1.26.04,1.75.06.41.02.64.03.66.05.03.03-.78.07-2.26.11-1.47.04-3.62.09-6.21.11h-.22s0-.23,0-.23c0-1.24-.02-2.58-.03-4,0-.71,0-1.44,0-2.19,0-.37,0-.75,0-1.13v-.57s0-.29,0-.29v-.15s0-.07,0-.07v-.05h0v-.02c-.23.23.32-.32.26-.26,3.09.01,5.98.02,8.47.04h.23s0,.23,0,.23c-.02,2.59-.07,4.74-.11,6.21-.04,1.48-.08,2.29-.11,2.26Z"/><path class="cls-7" d="m450.9,25c0,.14-2.03.26-4.54.26s-4.55-.12-4.55-.26,2.03-.26,4.55-.26,4.54.12,4.54.26Z"/><g><g><rect class="cls-2" x="1.15" y="97.96" width="141.54" height="99.38"/><path class="cls-7" d="m142.68,197.34s-.02-.62-.02-1.81c0-1.2-.01-2.96-.02-5.26-.01-4.61-.03-11.38-.05-20.03-.03-17.29-.06-42.1-.11-72.28l.21.21c-39.38.01-88.45.03-141.52.05h-.01l.26-.26c0,35.54-.02,69.28-.02,99.38l-.24-.24c41.77.05,77.12.09,102.04.12,12.47.03,22.33.05,29.08.06,3.37.01,5.97.02,7.73.03.87,0,1.54.01,1.99.01.45,0,.68.01.68.01,0,0-.22,0-.66.01-.45,0-1.11,0-1.97.01-1.75,0-4.33.02-7.68.03-6.74.01-16.58.04-29.03.06-24.96.03-60.37.07-102.2.12h-.24s0-.24,0-.24c0-30.09-.01-63.84-.02-99.38v-.26s.26,0,.26,0h.01c53.08.02,102.14.04,141.52.05h.21s0,.21,0,.21c-.05,30.23-.08,55.09-.11,72.41-.02,8.63-.04,15.38-.05,19.98-.01,2.28-.02,4.03-.02,5.22,0,1.18-.02,1.77-.02,1.77Z"/></g><path class="cls-7" d="m142.9,118.03c0,.14-31.74.26-70.87.26s-70.88-.12-70.88-.26,31.73-.26,70.88-.26,70.87.12,70.87.26Z"/><g><path class="cls-7" d="m15.11,104.97c.1.11-1.62,1.84-3.83,3.87-2.21,2.03-4.08,3.6-4.18,3.49-.1-.11,1.62-1.84,3.83-3.87,2.21-2.03,4.08-3.6,4.18-3.49Z"/><path class="cls-7" d="m14.78,112.66c-.11.1-1.84-1.62-3.87-3.83-2.03-2.21-3.6-4.08-3.49-4.18.11-.1,1.84,1.62,3.87,3.83,2.03,2.21,3.6,4.08,3.49,4.18Z"/></g><path class="cls-7" d="m29.16,112.5s-.07-.84-.11-2.19c-.04-1.35-.09-3.24-.11-5.5l.23.23c-2.27.01-4.89.02-7.69.04-.06.06.49-.49.26-.26h0v.26s0,.26,0,.26v.52c0,.35,0,.69,0,1.03,0,.68,0,1.34,0,1.99,0,1.28-.02,2.5-.03,3.63l-.23-.23c2.26.02,4.15.07,5.5.11,1.35.04,2.15.08,2.19.11.03.03-.7.07-2.04.11-1.34.04-3.29.09-5.64.11h-.22s0-.23,0-.23c0-1.13-.02-2.34-.03-3.63,0-.65,0-1.31,0-1.99,0-.34,0-.68,0-1.03v-.52s0-.26,0-.26v-.25h0c-.23.22.32-.33.26-.28,2.8.01,5.42.02,7.69.04h.23s0,.23,0,.23c-.02,2.35-.07,4.31-.11,5.64-.04,1.34-.08,2.08-.11,2.04Z"/><path class="cls-7" d="m43.5,111.82c0,.14-1.85.26-4.12.26s-4.12-.12-4.12-.26,1.85-.26,4.12-.26,4.12.12,4.12.26Z"/></g><g><g><rect class="cls-2" x="411.72" y="235.9" width="181.68" height="127.57"/><path class="cls-7" d="m593.41,363.47s-.02-.8-.02-2.32c0-1.53-.01-3.79-.02-6.75-.01-5.91-.03-14.6-.05-25.7-.03-22.19-.06-54.06-.11-92.8l.21.21c-50.55.01-113.54.03-181.67.05h-.01l.26-.26c0,45.62-.02,88.94-.02,127.57l-.24-.24c53.63.05,99.02.09,131.01.12,16.01.03,28.66.05,37.33.06,4.33.01,7.66.02,9.91.03,1.12,0,1.97.01,2.56.01.58,0,.88.01.88.01,0,0-.28,0-.85.01-.58,0-1.42,0-2.53.01-2.25,0-5.56.02-9.87.03-8.65.01-21.29.04-37.27.06-32.03.03-77.48.07-131.17.12h-.24s0-.24,0-.24c0-38.63-.01-81.94-.02-127.57v-.26h.28c68.13.02,131.12.04,181.67.05h.21s0,.21,0,.21c-.05,38.8-.08,70.71-.11,92.93-.02,11.08-.04,19.75-.05,25.65-.01,2.94-.02,5.18-.02,6.71,0,1.51-.02,2.28-.02,2.28Z"/></g><path class="cls-7" d="m593.69,261.66c0,.14-40.74.26-90.98.26s-90.99-.12-90.99-.26,40.73-.26,90.99-.26,90.98.12,90.98.26Z"/><g><path class="cls-7" d="m429.64,244.91c.1.11-2.13,2.31-4.96,4.92-2.84,2.61-5.22,4.64-5.32,4.53-.1-.11,2.13-2.31,4.96-4.92,2.84-2.61,5.22-4.64,5.32-4.53Z"/><path class="cls-7" d="m429.23,254.77c-.11.1-2.31-2.13-4.92-4.96-2.61-2.84-4.64-5.22-4.53-5.32s2.31,2.13,4.92,4.97c2.61,2.84,4.64,5.22,4.53,5.32Z"/></g><path class="cls-7" d="m447.69,254.56s-.03-.28-.05-.76c-.02-.55-.04-1.22-.06-2.03-.04-1.73-.09-4.17-.11-7.08l.23.23c-2.89.01-6.27.02-9.87.04-.06.06.49-.49.26-.26h0v.67s0,.67,0,.67c0,.44,0,.88,0,1.32,0,.87,0,1.72,0,2.55,0,1.65-.02,3.21-.03,4.65l-.23-.23c2.91.02,5.35.07,7.08.11.81.02,1.48.04,2.03.06.48.02.74.03.76.05s-.21.03-.66.05c-.53.02-1.19.04-1.98.06-1.72.04-4.22.09-7.22.11h-.22s0-.23,0-.23c0-1.44-.02-3-.03-4.65,0-.83,0-1.68,0-2.55,0-.44,0-.88,0-1.32v-.67s0-.34,0-.34v-.25s0-.04,0-.04v-.02h0v-.02h0c-.23.23.32-.32.26-.26,3.6.01,6.97.02,9.87.04h.23s0,.23,0,.23c-.02,3.01-.07,5.5-.11,7.22-.02.79-.04,1.45-.06,1.98-.02.45-.03.68-.05.66Z"/><path class="cls-7" d="m466.09,253.69c0,.14-2.37.26-5.29.26s-5.29-.12-5.29-.26,2.37-.26,5.29-.26,5.29.12,5.29.26Z"/></g><g><rect class="cls-1" x="105.76" y="46.36" width="375.98" height="289.06"/><path class="cls-7" d="m481.74,335.42c0-1.78-.08-114.41-.21-289.06l.21.21c-106.69.01-236.3.03-375.95.05h-.03l.26-.26c0,104.1-.02,202.61-.03,289.06l-.23-.23c223.06.14,373.92.23,375.98.23-2.06,0-152.92.1-375.98.23h-.23s0-.23,0-.23c0-86.45-.02-184.96-.03-289.06v-.26h.29c139.65.02,269.25.03,375.95.05h.21v.21c-.13,174.65-.21,287.28-.21,289.06Z"/></g><g><path class="cls-3" d="m374.49,311.11s.32-.45.97-1.3c.16-.21.35-.45.55-.72.18-.28.35-.6.55-.95.39-.69.88-1.48,1.23-2.47.19-.49.42-.99.62-1.54.16-.56.32-1.16.49-1.78.2-.62.3-1.28.41-1.98.09-.7.28-1.42.3-2.18.33-3.05.13-6.6-.48-10.52-1.22-7.87-4.55-17.14-9.66-27.21-5.1-10.09-12.12-20.95-20.75-32.27-8.63-11.32-19.01-23.02-30.94-34.76-11.94-11.73-25.47-23.51-40.62-34.68-7.58-5.57-15.58-10.98-24.01-16.07-8.42-5.1-17.31-9.86-26.67-13.99-9.37-4.07-19.25-7.62-29.68-9.3-5.2-.8-10.56-1.19-15.83-.39-2.63.4-5.21,1.12-7.65,2.21-2.39,1.17-4.6,2.73-6.42,4.69-1.75,2.03-3.05,4.39-3.94,6.9-.81,2.54-1.24,5.19-1.34,7.85-.2,5.33.8,10.61,2.18,15.68,2.85,10.17,7.51,19.59,12.62,28.44,5.16,8.84,10.9,17.13,16.93,24.91,6.02,7.8,12.3,15.13,18.7,22.03,12.82,13.79,26.07,25.89,39.08,36.42,13.02,10.52,25.82,19.5,38.05,26.79,12.23,7.28,23.81,13.03,34.42,16.94,10.59,3.93,20.18,6.19,28.13,6.5,3.97.16,7.52-.05,10.51-.72.76-.11,1.45-.38,2.13-.55.68-.18,1.33-.36,1.92-.63.6-.24,1.17-.47,1.71-.69.52-.26,1-.54,1.46-.79.94-.46,1.67-1.04,2.31-1.51.32-.24.62-.44.88-.66.24-.23.46-.44.65-.62.78-.74,1.19-1.11,1.19-1.11,0,0-.38.4-1.14,1.16-.19.19-.41.4-.64.64-.25.22-.56.43-.87.67-.64.48-1.36,1.07-2.3,1.54-.46.25-.94.54-1.46.81-.54.22-1.12.46-1.72.71-.59.27-1.24.46-1.93.65-.69.18-1.38.45-2.14.57-3,.7-6.57.92-10.56.78-7.99-.28-17.62-2.51-28.24-6.42-10.65-3.9-22.27-9.62-34.53-16.89-12.26-7.28-25.1-16.25-38.15-26.76-13.04-10.53-26.32-22.63-39.17-36.43-6.42-6.91-12.72-14.25-18.75-22.06-6.05-7.8-11.8-16.11-16.99-24.97-5.13-8.88-9.81-18.33-12.69-28.58-1.4-5.11-2.41-10.45-2.21-15.87.1-2.71.54-5.41,1.37-8.03.92-2.58,2.26-5.02,4.07-7.12,1.88-2.04,4.16-3.64,6.62-4.84,2.5-1.12,5.14-1.85,7.82-2.27,5.36-.81,10.78-.42,16.02.39,10.51,1.7,20.43,5.27,29.83,9.36,9.4,4.14,18.3,8.92,26.74,14.04,8.45,5.11,16.46,10.53,24.05,16.12,15.17,11.2,28.7,23.01,40.65,34.77,11.93,11.77,22.31,23.5,30.93,34.86,8.62,11.35,15.63,22.25,20.71,32.38,5.09,10.11,8.41,19.42,9.59,27.33.59,3.94.78,7.52.43,10.58-.03.77-.22,1.49-.32,2.19-.11.7-.22,1.37-.43,1.99-.18.62-.35,1.22-.51,1.79-.2.55-.44,1.06-.63,1.55-.36.99-.86,1.78-1.27,2.47-.21.34-.38.67-.57.94-.21.26-.39.5-.56.71-.67.85-1.02,1.27-1.02,1.27Z"/><path class="cls-3" d="m412.89,218.42s-.06-.55-.14-1.62c-.02-.27-.04-.57-.07-.9-.05-.33-.14-.68-.22-1.07-.17-.78-.32-1.69-.72-2.66-.18-.49-.35-1.02-.57-1.56-.26-.52-.53-1.08-.82-1.65-.26-.59-.63-1.16-1.01-1.75-.4-.58-.73-1.24-1.23-1.83-1.78-2.49-4.3-5.01-7.36-7.53-6.15-5.06-14.81-9.76-25.32-13.87-10.53-4.14-22.99-7.57-36.97-10.27-13.98-2.7-29.51-4.52-46.23-5.34-16.72-.8-34.65-.59-53.4,1.17-9.37.89-18.94,2.18-28.62,3.99-9.68,1.8-19.48,4.16-29.21,7.32-9.7,3.2-19.44,7.13-28.34,12.81-4.41,2.86-8.67,6.14-12.07,10.24-1.69,2.05-3.14,4.31-4.23,6.74-1.01,2.47-1.62,5.09-1.66,7.77.05,2.68.65,5.31,1.65,7.78,1.09,2.43,2.53,4.7,4.23,6.75,3.4,4.11,7.66,7.39,12.07,10.25,8.9,5.69,18.64,9.62,28.35,12.82,9.74,3.16,19.54,5.52,29.22,7.32,9.68,1.81,19.25,3.1,28.62,3.99,18.75,1.76,36.68,1.97,53.4,1.16,16.72-.82,32.25-2.64,46.23-5.34,13.97-2.7,26.44-6.13,36.97-10.27,10.52-4.12,19.18-8.81,25.32-13.87,3.06-2.52,5.58-5.04,7.36-7.53.49-.59.83-1.25,1.23-1.83.39-.59.75-1.16,1.01-1.75.29-.58.56-1.13.82-1.65.22-.54.39-1.07.57-1.56.4-.97.55-1.88.72-2.66.08-.39.17-.74.22-1.07.03-.33.05-.63.07-.9.08-1.07.14-1.62.14-1.62,0,0-.02.55-.08,1.62-.02.27-.03.57-.05.9-.04.33-.13.69-.2,1.08-.16.78-.3,1.7-.7,2.68-.18.49-.34,1.03-.56,1.58-.26.53-.53,1.09-.81,1.67-.26.6-.62,1.17-1.01,1.77-.4.59-.73,1.26-1.22,1.85-1.78,2.52-4.29,5.06-7.36,7.61-6.15,5.11-14.82,9.86-25.35,14.01-10.54,4.18-23.02,7.64-37.01,10.38-14,2.74-29.54,4.58-46.29,5.43-16.74.82-34.7.64-53.48-1.11-9.39-.88-18.97-2.17-28.68-3.98-9.71-1.8-19.53-4.16-29.3-7.33-9.74-3.21-19.52-7.15-28.49-12.88-4.45-2.89-8.75-6.2-12.21-10.38-1.73-2.09-3.2-4.4-4.32-6.9-1.04-2.54-1.66-5.25-1.7-8.02.05-2.77.68-5.48,1.72-8.02,1.12-2.5,2.6-4.81,4.33-6.89,3.46-4.18,7.77-7.48,12.21-10.37,8.97-5.73,18.75-9.67,28.49-12.87,9.77-3.16,19.59-5.53,29.29-7.32,9.7-1.81,19.29-3.1,28.67-3.98,18.78-1.74,36.73-1.93,53.48-1.11,16.74.84,32.29,2.69,46.29,5.42,13.99,2.73,26.47,6.2,37.01,10.38,10.53,4.16,19.2,8.9,25.35,14.01,3.07,2.55,5.58,5.09,7.36,7.61.49.59.83,1.26,1.22,1.85.38.6.75,1.17,1.01,1.77.28.58.55,1.14.81,1.67.22.55.38,1.08.56,1.58.39.98.54,1.9.7,2.68.07.39.16.75.2,1.08.02.33.04.63.05.9.06,1.08.08,1.62.08,1.62Z"/><path class="cls-3" d="m362.01,103.05s-.47-.29-1.37-.88c-.22-.15-.48-.31-.75-.5-.29-.16-.63-.31-.98-.48-.72-.34-1.53-.78-2.54-1.06-.5-.16-1.02-.35-1.58-.51-.57-.12-1.18-.24-1.81-.37-.63-.16-1.3-.22-2-.27-.7-.04-1.43-.18-2.2-.15-3.06-.12-6.59.33-10.46,1.21-7.77,1.75-16.78,5.72-26.48,11.51-9.72,5.78-20.07,13.54-30.76,22.93-10.7,9.39-21.65,20.55-32.54,33.26-10.88,12.72-21.7,27.03-31.79,42.92-5.04,7.95-9.88,16.3-14.38,25.06-4.51,8.76-8.65,17.94-12.12,27.57-3.42,9.63-6.28,19.73-7.24,30.25-.44,5.24-.46,10.61.7,15.82.58,2.6,1.48,5.12,2.74,7.48,1.33,2.31,3.04,4.4,5.12,6.08,2.15,1.6,4.59,2.74,7.16,3.46,2.59.63,5.26.88,7.92.79,5.33-.17,10.53-1.52,15.5-3.26,9.95-3.55,19.03-8.84,27.5-14.55,8.46-5.76,16.33-12.06,23.69-18.61,7.37-6.54,14.25-13.31,20.69-20.18,12.87-13.74,24.03-27.79,33.64-41.49,9.6-13.72,17.67-27.11,24.1-39.81,6.42-12.7,11.35-24.65,14.53-35.51,3.19-10.83,4.79-20.55,4.55-28.51-.12-3.97-.56-7.5-1.44-10.43-.16-.75-.48-1.42-.69-2.09-.23-.67-.46-1.3-.76-1.87-.28-.58-.55-1.13-.81-1.66-.29-.51-.61-.96-.89-1.4-.52-.91-1.15-1.59-1.66-2.2-.26-.3-.48-.59-.71-.83-.25-.22-.47-.43-.67-.61-.79-.72-1.19-1.11-1.19-1.11,0,0,.42.35,1.23,1.06.2.18.43.38.68.6.24.24.46.53.73.82.52.6,1.16,1.28,1.69,2.19.28.44.61.9.9,1.4.26.53.54,1.08.82,1.66.31.57.55,1.21.78,1.88.22.67.55,1.35.71,2.1.9,2.95,1.37,6.49,1.51,10.48.28,7.99-1.29,17.75-4.46,28.62-3.15,10.89-8.06,22.88-14.47,35.61-6.41,12.74-14.48,26.16-24.07,39.91-9.61,13.74-20.76,27.82-33.64,41.59-6.45,6.88-13.34,13.67-20.72,20.23-7.37,6.57-15.25,12.89-23.74,18.67-8.5,5.73-17.61,11.05-27.64,14.63-5.01,1.75-10.26,3.12-15.68,3.29-2.71.09-5.44-.16-8.1-.81-2.64-.74-5.17-1.91-7.39-3.57-2.16-1.74-3.92-3.9-5.29-6.27-1.29-2.42-2.2-5-2.8-7.64-1.18-5.3-1.16-10.72-.71-16.01.97-10.6,3.85-20.74,7.28-30.4,3.48-9.66,7.63-18.87,12.16-27.64,4.51-8.78,9.37-17.14,14.42-25.1,10.13-15.91,20.98-30.22,31.89-42.94,10.92-12.72,21.91-23.87,32.65-33.26,10.73-9.38,21.12-17.12,30.88-22.89,9.74-5.78,18.8-9.72,26.61-11.45,3.89-.86,7.44-1.29,10.52-1.15.77-.03,1.5.12,2.21.17.71.06,1.38.13,2.02.29.63.13,1.24.26,1.82.38.56.16,1.09.36,1.59.53,1.01.29,1.83.74,2.55,1.09.35.18.69.33.98.5.28.19.53.36.75.51.89.61,1.33.93,1.33.93Z"/><path class="cls-3" d="m132.86,275.9c2.02,2.02,2.02,5.29,0,7.31-2.02,2.02-5.29,2.02-7.31,0-2.02-2.02-2.02-5.29,0-7.31,2.02-2.02,5.29-2.02,7.31,0Z"/><path class="cls-3" d="m424.66,115.64c0,2.86-2.32,5.17-5.17,5.17s-5.17-2.32-5.17-5.17,2.32-5.17,5.17-5.17,5.17,2.32,5.17,5.17Z"/><circle class="cls-3" cx="164.2" cy="292.9" r="1.31"/><path class="cls-3" d="m193.57,147.98c0,.73-.59,1.31-1.31,1.31s-1.31-.59-1.31-1.31.59-1.31,1.31-1.31,1.31.59,1.31,1.31Z"/><path class="cls-3" d="m398.68,218.42c0,.73-.59,1.31-1.31,1.31s-1.31-.59-1.31-1.31.59-1.31,1.31-1.31,1.31.59,1.31,1.31Z"/><path class="cls-3" d="m416.94,157.15c0,.73-.59,1.31-1.31,1.31s-1.31-.59-1.31-1.31.59-1.31,1.31-1.31,1.31.59,1.31,1.31Z"/></g><ellipse class="cls-4" cx="280.03" cy="202.4" rx="82.42" ry="82.98"/><g class="cls-5"><path class="cls-1" d="m249.5,239.39c.43-3.61,3.25-7.28,1.63-10.54-1.81-3.64-7.09-3.05-10.81-4.68-5.19-2.28-6.79-8.72-10.18-13.27-3.04-4.07-10.13-8.54-15.53-7.32-3.91.89-5.25,3.22-5.66,6.09-.17-.03-.33-.05-.5-.08-1.45-.16-3.14-.23-3.94-1.43-.93-1.4-.01-3.47-.96-4.84-.5-.72-1.36-1.03-2.06-1.54-.7-.5-1.3-1.43-.87-2.19.35-.64,1.26-.77,1.72-1.36.36-.47.35-1.19-.03-1.63-1.49-1.76-3.14,1.83-3.96,2.67-.23.25-.46.46-.67.63h0c-.01.17-.03.31-.03.47-.02.49-.02.99-.03,1.49,0,.5-.03.99-.03,1.49,0,.4.01.8.02,1.21,0,.4,0,.81.02,1.21.89.3,1.72.77,2.54,1.25,1.6.93,3.39,2.15,3.49,4,.01.3-.01.63.17.87.17.23.48.33.77.39,1.37.33,2.78.52,4.19.59.03,1.66.14,3.39.12,5.03-.04,2.39-.82,4.75-.56,7.11.38,3.34,2.7,6.08,4.72,8.76,7.69,10.27,11.84,22.06,16.34,34.13h0c.83.67,2.03,1.55,2.89,2.16.68.49,1.3.92,2,1.38.69.47,1.31.87,2.02,1.31.5.31.6.4,1.11.7-.07-.14.06.1,0-.04-1.81-3.98-1.82-9.49,2.08-11.46.74-.38,1.59-.59,2.2-1.16,1.73-1.64.31-5.03,2.05-6.68.98-.91,2.5-.85,3.72-1.4,2.18-1,2.88-3.79,2.71-6.19-.18-2.39-.96-4.76-.69-7.15Z"/></g><g class="cls-5"><path class="cls-1" d="m202.73,178.65c1.54-1.32,4.2-1.47,5.39.17.85,1.17.65,2.78.43,4.21-.3,1.93-.6,3.86-.91,5.79-.09.57-.17,1.2.08,1.73.57,1.23,2.58.99,3.35-.1.78-1.11.69-2.59.48-3.92-.21-1.34-.48-2.75.04-4,1.3-3.1,5.93-2.63,8.62-4.66,1.67-1.25,2.41-3.35,3.4-5.19.99-1.84,2.65-3.68,4.73-3.59.7.03,1.4.29,2.1.26,2.06-.07,3.26-3.08,1.8-4.54-.3-.31-.7-.56-.91-.94-.36-.69.03-1.58.65-2.05.63-.46,1.42-.59,2.19-.7,1.76-.29,3.52-.56,5.28-.83,1.94-.3,4.43-1.3,4.16-3.25-.23-1.68-2.52-2.44-2.86-4.11-.09-.4-.04-.85-.22-1.23-.53-1.07-2.14-.64-3.17-.07-.42-1.55-2.63-2.26-3.87-1.24-1.04.86-1.17,2.37-1.54,3.66-.86,3.13-3.35,5.5-5.72,7.71-.8.73-1.7,1.51-2.78,1.56-1.08.05-2.22-1.11-1.72-2.06.34-.65,1.28-1.03,1.19-1.76-.13-.91-1.72-.85-2.03-1.72.63-2.58,3.59-3.65,5.85-5.03,2.75-1.67,4.92-4.3,5.98-7.35.18-.48.33-1.06.08-1.51-.34-.65-1.21-.76-1.96-.76-1.75-.03-3.92.21-4.56,1.84-.34.87-.09,1.86-.3,2.78-.61,2.71-4.33,3.01-6.6,4.63-.89.63-1.58,1.5-2.56,1.98-1.06.51-2.29.47-3.47.56-.21.01-.74,0-.95.02-.72,1-1.28,1.91-1.95,2.94-.67,1.03-1.33,2.19-1.95,3.25-2.92,4.99-5.18,10.39-7,15.99-.64,1.95-1.19,4.05-1.68,6.06-.49,2.01-.84,3.92-1.18,5.99.81-1.67,1.17-3.73,1.49-5.19.43-1.97,1.07-4.03,2.59-5.35Z"/></g><g class="cls-5"><path class="cls-1" d="m271.98,141.38c.78-1.02.55-2.49,1.06-3.67.84-1.96,3.45-2.66,4.35-4.6.35-.74.43-1.65,1.04-2.21.51-.46,1.26-.55,1.8-.97,1.21-.93.71-3.05-.58-3.87-3.23-2.06-9.18.32-11.97,2.34-3.59,2.6-7.1,5.72-11.88,5.42-1.32-.08-2.69-.45-3.92.02-1.23.47-1.99,2.32-.93,3.1.59.44,1.43.31,2.09.62,1.23.57,1.35,2.35.75,3.57-.6,1.22-1.68,2.13-2.39,3.28-.69,1.12-1,2.46-.89,3.77.08.91.4,1.85,1.12,2.42,1.49,1.19,3.75.17,5-1.26,1.26-1.43,2.13-3.27,3.76-4.24.81-.49,1.75-.71,2.68-.93,2.08-.49,4.15-.99,6.23-1.48.99-.24,2.06-.52,2.68-1.33Z"/></g><g class="cls-5"><path class="cls-1" d="m362.43,201.77c0-1.19-.04-2.36-.11-3.53-.06-1.17-.11-2.36-.23-3.52-.09-.94-.17-1.88-.3-2.8-.13-.98-.26-2.1-.42-3.07-.49-2.9-1.02-5.49-1.81-8.29-.31-1.08-.83-2.22-1.18-3.28-.35-1.06-.72-2.11-1.11-3.15h0s0-.01,0-.01c-.42-.78-.86-1.55-1.34-2.31-4.58-7.25-11.23-12.93-16.26-19.87-1.64-2.26-2.92-4.12-5.83-4.56-4.3-.67-6.48,1.79-9.53-2.29-.82-1.1-2.26-2.11-3.47-1.46.31.87.64,1.75.95,2.63.07.18.13.38.1.57-.07.61-.98.78-1.5.44-.52-.35-.78-.97-1.15-1.47-1.36-1.94-4.54-2.19-6.19-.51-.07-.82-.61-1.59-1.37-1.93-.17,1.6-2.01,2.79-3.55,2.28-.25-.8,1.17-.94,1.67-1.62.46-.64-.09-1.53-.68-2.06-1.55-1.36-3.6-2.15-5.67-2.2-1.32-.03-2.74.22-3.89-.46-.66-.39-1.13-1.04-1.81-1.42-1.45-.82-3.26-.07-4.72.74-2,1.11-4.06,2.5-4.76,4.68-.72,2.16.86,5.1,3.13,4.82.57-.08,1.17-.35,1.73-.2.81.22,1.17,1.16,1.24,2,.07.82-.03,1.71.38,2.44.39.73,1.58,1.1,2.03.4,1.07-1.02.94-2.73.67-4.17-.26-1.45-.56-3.08.3-4.26.87-1.19,3.35-.81,3.18.65-.1.86-1.08,1.49-1.04,2.36.04.89,1.12,1.36,2.01,1.32.89-.03,1.79-.35,2.65-.13.87.21,1.56,1.34.94,1.98-1.08,1.23-3.9-.87-4.46.65-.16.39,0,.83-.04,1.25-.1,1.28-1.71,1.75-2.99,1.9-1.28.14-2.63.27-3.79-.27-1.16-.55-1.96-2.07-1.29-3.17-.65-.47-1.64,0-1.99.73-.35.72-.25,1.58-.14,2.37-1.36-.3-2.57.85-3.34,1.98-.78,1.15-1.53,2.48-2.84,2.88-1.33.4-3.16-.14-3.85,1.06-.9,1.56,1.71,3.55.8,5.1-.52.87-1.77.85-2.76,1.12-2.62.74-3.53,4.58-1.75,6.62,1.77,2.05,5.36,1.93,7.25-.03,1.32-1.34,1.85-3.23,2.8-4.85.95-1.6,2.75-3.06,4.55-2.54.7.21,1.3.7,1.86,1.17.87.73,1.75,1.46,2.62,2.2.56.47,1.17,1.06,1.12,1.79-.05.59-.51,1.04-.7,1.59-.55,1.58,1.73,3.08,3.17,2.22,1.45-.86,1.59-3.06.61-4.42-1.36-1.88-4.42-2.82-4.34-5.14,1.56-1.28,4.03.07,4.94,1.88.91,1.8.94,3.94,1.71,5.8.77,1.88,2.92,3.53,4.72,2.62-.47-1.62-.93-3.22-1.4-4.82,1.15-.86,2.46,1.64,3.83,1.23.83-.26.94-1.46.57-2.27-.35-.81-1-1.49-1.16-2.36-.26-1.59,1.51-3.01,3.12-2.75,1.59.26,2.75,1.79,3.05,3.36.12.63.14,1.29.42,1.86.6,1.25,2.15,1.63,3.43,2.15,1.29.52,2.62,1.81,2.09,3.09-.25.56-.83,1.1-.63,1.67.2.51.95.73.95,1.28-.01.37-.39.61-.73.76-.86.35-1.8.47-2.63.87-.83.39-1.59,1.2-1.53,2.11.1,1.3,1.66,1.93,2.39,3.01.7,1.03.6,2.4,1.04,3.57.42,1.08,1.28,1.93,1.97,2.86,2.16,2.95,2.67,6.74,3.73,10.24.47,1.58,1.33,3.34,2.95,3.64.89.16,1.77-.18,2.61-.51,2.33-.93,4.76-1.92,6.39-3.81,1.64-1.9,2.19-4.99.51-6.86-.21-.25-.48-.47-.8-.51-.44-.05-.83.25-1.23.43-1.19.55-2.65.09-3.64-.78-.98-.86-1.58-2.07-2.16-3.25-.64-1.29-1.28-2.59-1.93-3.9.77-.65,2-.38,2.79.26.78.64,1.26,1.56,1.9,2.35,1.94,2.43,5.14,3.49,8.23,3.86.78.09,1.59.16,2.32.48,2.31,1.06,2.97,4.46,5.41,5.19.68.21,1.43.17,2.07.47.96.46,1.45,1.55,1.73,2.58.53,1.92.72,3.94,1.53,5.76.8,1.83,2.43,3.48,4.41,3.51,1.24.03,2.36-.55,3.26-1.42.1-1.8.22-3.66.22-5.49,0-.38,0-.76-.03-1.13Z"/></g><g class="cls-5"><path class="cls-1" d="m329.08,235.97c-1.23.24-1.47.96-2.14,1.87-.87,1.18-2.11,2.37-2.9,3.54-1.34,1.98-.13,5.07-1.9,6.73-.36.34-.82.56-1.15.94-.71.82-.44,2.22.42,2.88.87.66,2.14.61,3.07.06.93-.55,1.56-1.53,1.88-2.57.23-.75.36-1.59.95-2.11,1.01-.88,2.58-.23,3.9-.41,5.65-.79,3.22-11.98-2.15-10.92Z"/></g><g class="cls-5"><path class="cls-1" d="m330.99,220.42c3.25-2.81,4.57-9.17.52-10.64-1.53-.56-3.29-.11-4.81-.7-1.98-.77-2.9-2.99-3.62-4.99-1.88-5.25-3.75-10.49-5.63-15.74-1.13-3.16-2.85-6.82-6.17-7.29-1.88-.26-3.71.63-5.58.98-6.44,1.17-17.27-14.41-22.17-3.92-.68-2.85-5.32-1.78-6.8.75-1.48,2.53-1.79,5.89-4.14,7.64-1.79,1.34-4.42,1.42-5.88,3.11-1.03,1.19-1.21,2.87-1.33,4.44-.25,3-.5,6-.74,8.99-.2,2.42-.37,5,.83,7.11,1.2,2.11,4.32,3.28,6.12,1.65.82-.75,1.17-1.89,1.84-2.78,1.08-1.44,3.07-2.12,4.81-1.66,1.46.39,2.63,1.47,3.66,2.58,8.38,9.03,11.39,21.88,11.75,34.19.07,2.25.07,4.57.9,6.67.97,2.46,3.02,4.44,3.62,7.02.46,1.98.03,4.15.88,5.99,1.56,3.39,6.77,3.54,9.61,1.11,2.84-2.43,3.82-6.36,4.4-10.05.57-3.69.95-7.58,3.01-10.7,1.28-1.93,3.17-3.48,4.06-5.61,1.25-2.99.32-6.53,1.49-9.55,1.55-4.01,6.11-5.79,9.36-8.6Z"/></g><path class="cls-7" d="m362.35,202.48s-.03-.45-.06-1.34c-.05-.89-.02-2.21-.17-3.93-.21-3.45-.77-8.54-2.33-14.92-.83-3.17-1.85-6.69-3.35-10.39-1.47-3.71-3.3-7.66-5.69-11.66-4.73-8.01-11.53-16.41-20.82-23.58-4.63-3.6-9.89-6.85-15.71-9.51-5.81-2.67-12.16-4.82-18.95-6.06-6.77-1.26-13.94-1.76-21.26-1.18-3.67.22-7.35.82-11.05,1.57-3.69.79-7.37,1.88-11.01,3.18-14.53,5.33-28.27,15.28-38.14,28.98-2.51,3.39-4.69,7.06-6.66,10.86-1.01,1.89-1.86,3.87-2.74,5.84-.79,2.01-1.6,4.02-2.25,6.1-1.33,4.14-2.43,8.4-3.1,12.76-.68,4.36-1.03,8.8-1.06,13.27.03,4.47.38,8.91,1.06,13.27.67,4.37,1.76,8.63,3.1,12.77.65,2.08,1.46,4.09,2.25,6.1.88,1.97,1.73,3.95,2.74,5.85,1.97,3.8,4.15,7.47,6.66,10.86,9.87,13.71,23.62,23.67,38.15,28.99,3.65,1.3,7.32,2.39,11.01,3.18,3.7.75,7.38,1.35,11.05,1.57,7.32.58,14.49.08,21.26-1.19,6.78-1.24,13.14-3.39,18.95-6.06,5.82-2.67,11.08-5.92,15.71-9.51,9.3-7.18,16.09-15.58,20.82-23.59,2.39-4,4.22-7.95,5.69-11.66,1.5-3.7,2.52-7.21,3.35-10.39,1.56-6.38,2.12-11.47,2.33-14.92.15-1.72.12-3.04.17-3.93.03-.89.06-1.34.06-1.34,0,0,0,.45,0,1.34-.04.89.01,2.21-.12,3.94-.17,3.45-.71,8.56-2.24,14.96-.81,3.19-1.82,6.71-3.32,10.43-1.46,3.73-3.28,7.69-5.67,11.72-4.72,8.05-11.53,16.5-20.85,23.73-4.64,3.62-9.92,6.9-15.76,9.59-5.84,2.69-12.22,4.87-19.04,6.12-6.81,1.28-14.01,1.79-21.38,1.22-3.69-.22-7.39-.82-11.11-1.57-3.71-.79-7.41-1.88-11.08-3.19-14.62-5.34-28.46-15.36-38.4-29.14-2.52-3.41-4.72-7.1-6.7-10.93-1.01-1.9-1.87-3.89-2.75-5.88-.8-2.02-1.61-4.05-2.26-6.14-1.34-4.17-2.45-8.45-3.12-12.85-.68-4.39-1.04-8.86-1.07-13.35.03-4.5.39-8.96,1.07-13.35.67-4.39,1.78-8.68,3.12-12.84.66-2.09,1.47-4.12,2.26-6.14.88-1.99,1.74-3.97,2.76-5.88,1.98-3.83,4.18-7.51,6.7-10.92,9.94-13.78,23.77-23.79,38.39-29.14,3.67-1.31,7.37-2.4,11.08-3.19,3.72-.75,7.43-1.35,11.11-1.57,7.36-.57,14.57-.06,21.38,1.22,6.82,1.25,13.2,3.43,19.04,6.12,5.84,2.69,11.12,5.96,15.76,9.59,9.32,7.23,16.13,15.68,20.85,23.73,2.39,4.02,4.21,7.99,5.67,11.72,1.49,3.72,2.5,7.24,3.32,10.43,1.53,6.4,2.06,11.51,2.24,14.96.14,1.73.09,3.05.12,3.94.01.89,0,1.34,0,1.34Z"/><g><path class="cls-1" d="m283.18,284.79c-.14,0-.26-36.83-.26-82.26s.12-82.27.26-82.27.26,36.83.26,82.27-.12,82.26-.26,82.26Z"/><path class="cls-1" d="m287.9,284.35s.13-.11.41-.3c.29-.2.7-.48,1.22-.83,1.09-.71,2.64-1.84,4.59-3.35,3.87-3.05,9.21-7.86,14.69-14.78,5.44-6.91,11.05-15.95,15-26.93,3.97-10.95,6.35-23.71,6.63-37.16.26-13.45-1.08-26.33-4.21-37.56-3.11-11.24-8.29-20.61-13.83-27.44-2.75-3.44-5.71-6.15-8.49-8.27-2.79-2.11-5.43-3.59-7.65-4.67-2.23-1.05-4.02-1.73-5.25-2.15-.6-.2-1.06-.36-1.4-.48-.31-.11-.47-.18-.47-.18,0,0,.17.03.49.13.34.1.81.24,1.42.43,1.24.39,3.05,1.04,5.31,2.06,2.23,1.06,4.91,2.51,7.73,4.62,2.81,2.11,5.81,4.82,8.6,8.27,5.61,6.84,10.86,16.24,14.01,27.54,3.17,11.28,4.53,24.21,4.27,37.7-.29,13.5-2.69,26.31-6.7,37.31-4,11.03-9.66,20.08-15.16,27-5.54,6.92-10.94,11.7-14.86,14.71-1.98,1.49-3.55,2.59-4.66,3.27-.54.34-.95.6-1.25.79-.28.18-.44.25-.44.25Z"/><path class="cls-1" d="m280.33,284.63s-.16-.08-.44-.26c-.31-.19-.73-.46-1.28-.8-1.13-.69-2.74-1.81-4.77-3.31-4.02-3.03-9.63-7.76-15.54-14.58-2.94-3.41-5.96-7.34-8.81-11.81-2.86-4.46-5.51-9.51-7.57-15.12-2.11-5.58-3.75-11.64-4.95-18.02-1.16-6.38-1.85-13.08-2.02-19.96-.27-13.75,1.13-26.92,4.45-38.4,1.67-5.72,3.81-11.01,6.36-15.67,2.49-4.7,5.54-8.65,8.65-11.92,6.32-6.5,12.9-10.04,17.49-12.05,2.32-.99,4.17-1.63,5.44-2.02.62-.18,1.1-.33,1.45-.43.33-.09.5-.13.5-.13,0,0-.16.07-.48.18-.34.11-.82.27-1.43.48-1.25.42-3.09,1.1-5.39,2.11-4.55,2.06-11.06,5.62-17.3,12.12-3.07,3.26-6.08,7.19-8.54,11.87-2.52,4.64-4.63,9.9-6.28,15.6-3.28,11.42-4.66,24.55-4.39,38.25.17,6.85.85,13.52,2,19.88,1.19,6.35,2.82,12.39,4.9,17.94,2.03,5.58,4.65,10.6,7.48,15.06,2.82,4.46,5.81,8.38,8.73,11.8,5.85,6.83,11.41,11.58,15.38,14.66,2.01,1.51,3.59,2.66,4.7,3.38.53.36.95.64,1.25.85.28.19.42.3.42.3Z"/><path class="cls-1" d="m362.45,200.28c0,.14-36.67.26-81.9.26s-81.91-.12-81.91-.26,36.66-.26,81.91-.26,81.9.12,81.9.26Z"/><path class="cls-1" d="m349.85,158.01c0,.14-31.29.26-69.87.26s-69.88-.12-69.88-.26,31.28-.26,69.88-.26,69.87.12,69.87.26Z"/><path class="cls-1" d="m350.75,243.35c0,.14-32,.26-71.46.26s-71.47-.12-71.47-.26,31.99-.26,71.47-.26,71.46.12,71.46.26Z"/></g><path class="cls-7" d="m481.74,73c0,.14-83.72.26-186.98.26s-187-.12-187-.26,83.71-.26,187-.26,186.98.12,186.98.26Z"/><g><path class="cls-7" d="m126.38,56.72c.1.11-2.47,2.63-5.74,5.63-3.27,3-6,5.35-6.09,5.25-.1-.11,2.47-2.63,5.74-5.63,3.27-3,5.99-5.35,6.09-5.25Z"/><path class="cls-7" d="m125.9,68.07c-.11.1-2.63-2.47-5.63-5.74-3-3.27-5.35-6-5.25-6.09.11-.1,2.63,2.47,5.63,5.74,3,3.27,5.35,5.99,5.25,6.09Z"/></g><path class="cls-7" d="m147.15,67.84s-.03-.32-.05-.86c-.02-.61-.03-1.39-.06-2.33-.04-1.99-.09-4.8-.11-8.16l.23.23c-3.32.01-7.21.02-11.35.04-.06.06.49-.49.26-.26h0v.77s0,.77,0,.77c0,.51,0,1.02,0,1.52,0,1,0,1.98,0,2.93,0,1.9-.02,3.7-.03,5.36l-.23-.23c3.36.02,6.16.07,8.16.11.94.02,1.72.04,2.33.06.55.02.85.03.86.05.02.02-.25.03-.77.05-.6.02-1.36.04-2.28.06-1.98.04-4.85.09-8.3.11h-.22s0-.23,0-.23c0-1.66-.02-3.45-.03-5.36,0-.95,0-1.93,0-2.93,0-.5,0-1.01,0-1.52v-.77s0-.39,0-.39v-.36h0v-.02h0c-.23.23.32-.32.26-.27,4.15.01,8.03.02,11.35.04h.23s0,.23,0,.23c-.02,3.45-.07,6.32-.11,8.3-.02.92-.04,1.68-.06,2.28-.02.52-.03.79-.05.77Z"/><path class="cls-7" d="m168.33,66.83c0,.14-2.73.26-6.09.26s-6.09-.12-6.09-.26,2.73-.26,6.09-.26,6.09.12,6.09.26Z"/></svg>