<?xml version="1.0" encoding="UTF-8"?><svg id="Camada_1" xmlns="http://www.w3.org/2000/svg" viewBox="0 0 236.34 237.94"><defs><style>.cls-1{fill:#fff;}</style></defs><path class="cls-1" d="m130.8,97.03c1.47-1.8,2.53-3.18,3.68-4.49,7.75-8.88,17.62-13.7,29.2-15.48,11.88-1.83,23.6-1.7,35.18,1.84,15.13,4.62,24.76,14.96,30.54,29.31,4.37,10.86,6.21,22.3,6.38,33.87.45,28.79.46,57.59.57,86.39.02,6.29-3.3,9.45-9.56,9.46-11.09.02-22.17.02-33.26,0-6.25-.01-9.19-2.98-9.19-9.3,0-24.45.14-48.9-.1-73.34-.06-5.77-.88-11.64-2.24-17.25-2.72-11.16-10.31-17.41-21.01-18.23-11.34-.86-20.25,4.23-25.08,14.23-3.45,7.15-5.12,14.68-5.11,22.61.03,23.95.01,47.9,0,71.86,0,6.32-3.1,9.41-9.48,9.42-10.69.01-21.38.02-32.07,0-6.09-.01-9.35-3.25-9.35-9.33-.01-47.01-.01-94.03,0-141.04,0-6.17,3.11-9.21,9.34-9.21,10.89,0,21.77-.01,32.66,0,5.81,0,8.87,3.11,8.89,8.99.01,3.04,0,6.07,0,9.7Z"/><path class="cls-1" d="m7.4,158.13c0-23.35,0-46.7,0-70.04,0-6.66,3.1-9.74,9.78-9.74,10.29,0,20.58,0,30.87,0,7.06,0,10.22,3.19,10.22,10.37.01,27.5,0,55.01,0,82.51,0,18.6,0,37.2,0,55.8,0,7.84-3.1,10.9-10.99,10.91-9.79,0-19.59,0-29.38,0-7.45,0-10.5-3.01-10.5-10.35,0-23.15,0-46.3,0-69.45Z"/><path class="cls-1" d="m65.47,32.9c-.02,17.91-14.74,32.86-32.67,32.7C14.74,65.43.09,51.57,0,32.71-.09,14.66,14.83,0,32.69,0c18.03,0,32.8,14.81,32.78,32.9Z"/></svg>