<?xml version="1.0" encoding="utf-8"?>
<!-- Generator: Adobe Illustrator 27.2.0, SVG Export Plug-In . SVG Version: 6.00 Build 0)  -->
<svg version="1.1" id="Camada_1" xmlns="http://www.w3.org/2000/svg" xmlns:xlink="http://www.w3.org/1999/xlink" x="0px" y="0px"
	 viewBox="0 0 236.3 237.9" style="enable-background:new 0 0 236.3 237.9;" xml:space="preserve">
<path d="M130.8,97c1.5-1.8,2.5-3.2,3.7-4.5c7.8-8.9,17.6-13.7,29.2-15.5c11.9-1.8,23.6-1.7,35.2,1.8c15.1,4.6,24.8,15,30.5,29.3
	c4.4,10.9,6.2,22.3,6.4,33.9c0.4,28.8,0.5,57.6,0.6,86.4c0,6.3-3.3,9.4-9.6,9.5c-11.1,0-22.2,0-33.3,0c-6.2,0-9.2-3-9.2-9.3
	c0-24.4,0.1-48.9-0.1-73.3c-0.1-5.8-0.9-11.6-2.2-17.2c-2.7-11.2-10.3-17.4-21-18.2c-11.3-0.9-20.2,4.2-25.1,14.2
	c-3.4,7.1-5.1,14.7-5.1,22.6c0,23.9,0,47.9,0,71.9c0,6.3-3.1,9.4-9.5,9.4c-10.7,0-21.4,0-32.1,0c-6.1,0-9.3-3.2-9.3-9.3
	c0-47,0-94,0-141c0-6.2,3.1-9.2,9.3-9.2c10.9,0,21.8,0,32.7,0c5.8,0,8.9,3.1,8.9,9C130.8,90.4,130.8,93.4,130.8,97L130.8,97z"/>
<path d="M7.4,158.1c0-23.4,0-46.7,0-70c0-6.7,3.1-9.7,9.8-9.7c10.3,0,20.6,0,30.9,0c7.1,0,10.2,3.2,10.2,10.4c0,27.5,0,55,0,82.5
	c0,18.6,0,37.2,0,55.8c0,7.8-3.1,10.9-11,10.9c-9.8,0-19.6,0-29.4,0c-7.4,0-10.5-3-10.5-10.4C7.4,204.4,7.4,181.3,7.4,158.1
	L7.4,158.1z"/>
<path d="M65.5,32.9c0,17.9-14.7,32.9-32.7,32.7C14.7,65.4,0.1,51.6,0,32.7C-0.1,14.7,14.8,0,32.7,0C50.7,0,65.5,14.8,65.5,32.9z"/>
</svg>
