<?xml version="1.0" encoding="UTF-8"?><svg id="Camada_2" xmlns="http://www.w3.org/2000/svg" viewBox="0 0 642.95 86"><defs><style>.cls-1{fill:#fff;}</style></defs><g><path class="cls-1" d="m75.08,86h-7.71c-1.39,0-2.08-.69-2.08-2.08V25.69c0-1.39.69-2.08,2.08-2.08h7.71c1.39,0,2.08.69,2.08,2.08v4.4h.49c2.36-4.32,6.69-6.48,12.97-6.48h4.04c7.1,0,12.15,2.69,15.17,8.07,1.3-2.61,3.3-4.61,5.99-5.99,2.69-1.39,5.58-2.08,8.69-2.08h3.91c5.95,0,10.5,1.65,13.64,4.96,3.14,3.3,4.71,7.97,4.71,14.01v41.35c0,1.39-.69,2.08-2.08,2.08h-7.83c-1.39,0-2.08-.69-2.08-2.08v-40.86c0-6.03-2.94-9.05-8.81-9.05h-3.55c-6.77,0-10.15,3.55-10.15,10.64v39.27c0,1.39-.73,2.08-2.2,2.08h-7.71c-1.39,0-2.08-.69-2.08-2.08v-40.86c0-6.03-2.94-9.05-8.81-9.05h-4.28c-6.69,0-10.03,3.47-10.03,10.4v39.51c0,1.39-.69,2.08-2.08,2.08Z"/><path class="cls-1" d="m178.49,86h-4.77c-6.04,0-10.7-1.67-14.01-5.02-3.3-3.34-4.95-7.99-4.95-13.95v-24.47c0-6.04,1.65-10.71,4.95-14.01,3.3-3.3,7.97-4.96,14.01-4.96h27.4c1.47,0,2.2.69,2.2,2.08v58.23c0,1.39-.73,2.08-2.2,2.08h-7.71c-1.39,0-2.08-.69-2.08-2.08v-4.4h-.49c-1.96,4.32-6.08,6.48-12.36,6.48Zm12.85-20.8v-29.97c0-.81-.45-1.22-1.35-1.22h-14.56c-5.87,0-8.81,3.02-8.81,9.05v23.49c0,6.04,2.94,9.05,8.81,9.05h5.87c6.69,0,10.03-3.46,10.03-10.4Z"/><path class="cls-1" d="m217.02,34.01h-5.87c-.82,0-1.37-.14-1.65-.43-.29-.29-.43-.79-.43-1.53v-6.36c0-1.39.69-2.08,2.08-2.08h5.87c.81,0,1.22-.41,1.22-1.22v-11.01c0-1.39.73-2.08,2.2-2.08h7.71c1.39,0,2.08.69,2.08,2.08v11.01c0,.82.45,1.22,1.35,1.22h11.38c1.47,0,2.2.69,2.2,2.08v6.36c0,1.31-.73,1.96-2.2,1.96h-11.38c-.9,0-1.35.41-1.35,1.22v31.44c0,5.95,3.06,8.93,9.17,8.93h4.77c1.47,0,2.2.7,2.2,2.08v6.36c0,1.31-.73,1.96-2.2,1.96h-6.61c-6.04,0-10.77-1.63-14.19-4.89-3.43-3.26-5.14-7.87-5.14-13.82v-32.05c0-.81-.41-1.22-1.22-1.22Z"/><path class="cls-1" d="m297.44,86h-26.42c-6.04,0-10.7-1.67-14.01-5.02-3.3-3.34-4.95-7.99-4.95-13.95v-24.47c0-6.04,1.65-10.71,4.95-14.01,3.3-3.3,7.97-4.96,14.01-4.96h10.03c6.03,0,10.72,1.65,14.07,4.96,3.34,3.3,5.02,7.97,5.02,14.01v15.54c0,1.47-.73,2.2-2.2,2.2h-32.79c-.9,0-1.35.41-1.35,1.22v5.26c0,5.96,2.98,8.93,8.93,8.93h24.71c1.47,0,2.2.73,2.2,2.2v6.12c0,1.31-.73,1.96-2.2,1.96Zm-32.3-34.01h21.9c.81,0,1.22-.41,1.22-1.22v-7.83c0-3.1-.69-5.36-2.08-6.79-1.39-1.43-3.63-2.14-6.73-2.14h-6.73c-3.1,0-5.34.71-6.73,2.14-1.39,1.43-2.08,3.69-2.08,6.79v7.83c0,.82.41,1.22,1.22,1.22Z"/><path class="cls-1" d="m331.19,86h-5.5c-5.87,0-10.38-1.65-13.52-4.95-3.14-3.3-4.71-7.97-4.71-14.01V25.69c0-1.39.69-2.08,2.08-2.08h7.71c1.39,0,2.08.69,2.08,2.08v40.86c0,6.04,2.94,9.05,8.81,9.05h5.87c6.69,0,10.03-3.46,10.03-10.4V25.69c0-1.39.69-2.08,2.08-2.08h7.71c1.47,0,2.2.69,2.2,2.08v58.23c0,1.39-.73,2.08-2.2,2.08h-7.71c-1.39,0-2.08-.69-2.08-2.08v-4.4h-.49c-1.96,4.32-6.08,6.48-12.36,6.48Z"/><path class="cls-1" d="m388.2,86h-22.51c-1.39,0-2.08-.69-2.08-2.08v-5.99c0-1.3.69-1.96,2.08-1.96h20.55c5.3,0,7.95-1.83,7.95-5.5v-1.47c0-3.26-1.92-5.75-5.75-7.46l-13.33-6.36c-4.16-1.96-7.18-4.12-9.05-6.48-1.88-2.36-2.81-5.46-2.81-9.3,0-10.52,5.83-15.78,17.49-15.78h20.31c1.3,0,1.96.69,1.96,2.08v5.99c0,1.39-.65,2.08-1.96,2.08h-17.86c-2.45,0-4.32.43-5.63,1.29-1.3.86-1.96,1.98-1.96,3.36v1.35c0,2.61,2.08,4.89,6.24,6.85l13.46,6.85c4.24,1.88,7.16,4.1,8.75,6.67,1.59,2.57,2.38,5.89,2.38,9.97,0,10.6-6.08,15.9-18.23,15.9Z"/><path class="cls-1" d="m421.42,69.98v14.56c0,.98-.41,1.47-1.22,1.47h-4.28c-.9,0-1.35-.49-1.35-1.47v-14.56c0-.9.45-1.35,1.35-1.35h4.28c.81,0,1.22.45,1.22,1.35Z"/><path class="cls-1" d="m457.34,86h-8.2c-5.22,0-9.34-1.55-12.36-4.65-3.02-3.1-4.53-7.34-4.53-12.72v-27.65c0-5.38,1.51-9.62,4.53-12.72,3.02-3.1,7.14-4.65,12.36-4.65h8.2c6.28,0,10.56,2.12,12.85,6.36h.49V1.47c0-.98.41-1.47,1.22-1.47h3.55c.9,0,1.35.49,1.35,1.47v83.07c0,.98-.45,1.47-1.35,1.47h-3.55c-.82,0-1.22-.49-1.22-1.47v-4.89h-.49c-2.28,4.24-6.57,6.36-12.85,6.36Zm13.34-17.49v-27.4c0-3.83-1.12-6.79-3.37-8.87-2.24-2.08-5.32-3.12-9.24-3.12h-8.2c-3.75,0-6.61,1.06-8.56,3.18-1.96,2.12-2.94,5.1-2.94,8.93v27.16c0,3.83.98,6.81,2.94,8.93,1.96,2.12,4.81,3.18,8.56,3.18h8.2c3.92,0,6.99-1.04,9.24-3.12,2.24-2.08,3.37-5.03,3.37-8.87Z"/><path class="cls-1" d="m530.51,86h-25.57c-5.3,0-9.48-1.55-12.54-4.65-3.06-3.1-4.59-7.34-4.59-12.72v-27.65c0-5.38,1.53-9.62,4.59-12.72,3.06-3.1,7.24-4.65,12.54-4.65h10.52c5.3,0,9.5,1.55,12.6,4.65,3.1,3.1,4.65,7.34,4.65,12.72v15.54c0,.98-.49,1.47-1.47,1.47h-36.21c-.73,0-1.1.37-1.1,1.1v9.42c0,3.84.98,6.79,2.94,8.87,1.96,2.08,4.81,3.12,8.56,3.12h25.08c.9,0,1.35.45,1.35,1.35v2.81c0,.9-.45,1.35-1.35,1.35Zm-35.48-32.91h30.46c.73,0,1.1-.37,1.1-1.1v-10.89c0-3.83-.98-6.79-2.94-8.87s-4.81-3.12-8.56-3.12h-9.66c-3.75,0-6.61,1.04-8.56,3.12-1.96,2.08-2.94,5.04-2.94,8.87v10.89c0,.73.37,1.1,1.1,1.1Z"/><path class="cls-1" d="m539.41,23.61h3.79c.81,0,1.35.49,1.59,1.47l16.39,54.07h.49l16.27-54.07c.33-.98.86-1.47,1.59-1.47h3.92c.9,0,1.18.49.86,1.47l-18.47,59.46c-.24.98-.82,1.47-1.71,1.47h-5.38c-.9,0-1.51-.49-1.83-1.47l-18.47-59.46c-.24-.98.08-1.47.98-1.47Z"/></g><path class="cls-1" d="m46.85,35.53v2.94c0,.98-.37,1.55-1.1,1.71L5.38,54.86l40.37,14.56c.73.16,1.1.73,1.1,1.71v3.06c0,.98-.57,1.3-1.71.98L1.59,58.53c-1.06-.33-1.59-1.02-1.59-2.08v-3.3c0-.98.53-1.67,1.59-2.08l43.55-16.52c1.14-.49,1.71-.16,1.71.98Z"/><path class="cls-1" d="m596.1,38.46v-2.94c0-1.14.57-1.47,1.71-.98l43.67,16.52c.98.41,1.47,1.1,1.47,2.08v3.3c0,1.06-.49,1.75-1.47,2.08l-43.67,16.64c-1.14.33-1.71,0-1.71-.98v-3.06c0-.9.41-1.47,1.22-1.71l40.25-14.56-40.25-14.68c-.82-.16-1.22-.73-1.22-1.71Z"/></svg>